<?xml version="1.0" standalone="no"?>
<!DOCTYPE svg PUBLIC "-//W3C//DTD SVG 20010904//EN"
 "http://www.w3.org/TR/2001/REC-SVG-20010904/DTD/svg10.dtd">
<svg version="1.0" xmlns="http://www.w3.org/2000/svg"
 width="289.000000pt" height="265.000000pt" viewBox="0 0 289.000000 265.000000"
 preserveAspectRatio="xMidYMid meet">

<g transform="translate(0.000000,265.000000) scale(0.100000,-0.100000)"
fill="#000000" stroke="none">
<path d="M1305 2533 c-513 -83 -878 -410 -1003 -897 -23 -89 -26 -121 -26
-271 -1 -130 3 -189 17 -250 83 -361 306 -647 632 -810 191 -95 375 -133 595
-121 760 41 1282 791 1059 1521 -125 406 -452 710 -869 806 -84 20 -337 34
-405 22z m271 -930 c65 -81 181 -224 257 -318 76 -93 159 -196 183 -227 l45
-57 -27 -18 c-23 -15 -28 -15 -38 -2 -26 35 -247 307 -278 342 l-33 39 -55
-71 c-30 -39 -57 -70 -60 -70 -3 0 -30 31 -60 69 -30 39 -57 70 -60 69 -3 0
-30 -32 -60 -71 l-54 -70 -26 29 c-14 15 -41 48 -61 72 l-36 44 -157 -194
c-87 -107 -163 -195 -170 -197 -7 -1 -20 5 -29 16 -15 17 -5 32 196 278 117
143 252 311 301 372 49 62 92 112 96 112 3 0 60 -66 126 -147z"/>
<path d="M1353 1535 c-51 -62 -93 -117 -93 -122 0 -4 17 -28 38 -51 l38 -44
54 71 c30 38 58 69 62 68 3 -1 31 -32 61 -69 l56 -68 35 42 c20 23 36 46 36
51 0 9 -178 230 -189 234 -3 2 -48 -49 -98 -112z"/>
</g>
</svg>
